# xmcd CD database file
#
# Track frame offsets:
#	150
#	14090
#	25235
#	39315
#	50485
#	64428
#	77285
#	90380
#	101758
#	114688
#	131595
#	141830
#	156363
#	171558
#	186443
#	225762
#
# Disc length: 3394 seconds
#
# Revision: 1
# Processed by: cddbd v1.5.2PL0 Copyright (c) Steve Scherf et al.
# Submitted via: CDex 1.70beta2
#
DISCID=d70d4010
DTITLE=Donavon Frankenreiter - Donavon Frankenreiter - UICU-1064
DYEAR=2004
DGENRE=Classical
TTITLE0=It Don't Matter
TTITLE1=Free - (feat. Jack Johnson)
TTITLE2=On My Mind
TTITLE3=Our Love
TTITLE4=What'cha Know About - (feat. G. Love)
TTITLE5=Butterfly
TTITLE6=Bend in the Road
TTITLE7=Day Dreamer
TTITLE8=Make You Mine
TTITLE9=Call Me Papa
TTITLE10=Heading Home
TTITLE11=So Far Away
TTITLE12=Swing On Down
TTITLE13=It Don't Matter [Live from the Warfield Theater - SF, CA]
TTITLE14=Make You Mine [Live from the Warfield Theater - SF, CA]
TTITLE15=Donavon Frankenreiter (E.P.K)
EXTD=YEAR: 2004
EXTT0=
EXTT1=
EXTT2=
EXTT3=
EXTT4=
EXTT5=
EXTT6=
EXTT7=
EXTT8=
EXTT9=
EXTT10=
EXTT11=
EXTT12=
EXTT13=
EXTT14=
EXTT15=
PLAYORDER=
